# xmcd
#
# Track frame offsets:
#	150
#	11937
#	29945
#	42430
#	58075
#	72480
#	86627
#	100415
#	114605
#	132262
#	144987
#	162075
#	180912
#
# Disc length: 2622 seconds
#
# Revision: 0
# Processed by: cddbd v1.5.1PL2 Copyright (c) Steve Scherf et al.
# Submitted via: EasyCDDAExtractor 5.0.5.1
#
DISCID=bc0a3c0d
DTITLE=Various Artist - Christmas In Texas
DYEAR=1992
DGENRE=Country
TTITLE0=Navidad Eres Tu - Emilio Navaira
TTITLE1=Duerme, No Llores - Elsa Garcia
TTITLE2=En La Navidad - Roberto Pulido
TTITLE3=Recordemos - Gary Hobbs
TTITLE4=Ven A Mi Casa Esta Navidad - New Variety Band
TTITLE5=Navidad - Hometown Boys
TTITLE6=Pancho From The Rancho - La Mafia
TTITLE7=Navidad Con Dios - Emilio Navaira
TTITLE8=Santa Claus Is Coming To Town, Rockin Around The Christmas Tree, Si
TTITLE8=lver Bells - Elsa Garcia
TTITLE9=Bienvenida Navidad - Roberto Pulido
TTITLE10=Paz Esta Navidad - Gary Hobbs
TTITLE11=Navidad, Navidad - New Variety Band
TTITLE12=<various artists> - Amor De Navidad - La Mafia
EXTD=
EXTT0=Emilio Navaira
EXTT1=Elsa Garcia
EXTT2=Roberto Pulido
EXTT3=Gary Hobbs
EXTT4=New Variety Band
EXTT5=Hometown Boys
EXTT6=La Mafia
EXTT7=Emilio Navaira
EXTT8=Elsa Garcia
EXTT9=Roberto Pulido
EXTT10=Gary Hobbs
EXTT11=New Variety Band
EXTT12=La Mafia
PLAYORDER=
